<?xml version="1.0" encoding="UTF-8" standalone="no"?>
<!-- Created with Inkscape (http://www.inkscape.org/) -->

<svg
   width="1000mm"
   height="1000mm"
   viewBox="0 0 999.99999 999.99999"
   version="1.1"
   id="svg12"
   inkscape:version="1.2.2 (732a01da63, 2022-12-09)"
   sodipodi:docname="logo.svg"
   xmlns:inkscape="http://www.inkscape.org/namespaces/inkscape"
   xmlns:sodipodi="http://sodipodi.sourceforge.net/DTD/sodipodi-0.dtd"
   xmlns="http://www.w3.org/2000/svg"
   xmlns:svg="http://www.w3.org/2000/svg">
  <sodipodi:namedview
     id="namedview14"
     pagecolor="#ffffff"
     bordercolor="#000000"
     borderopacity="0.25"
     inkscape:showpageshadow="2"
     inkscape:pageopacity="0.0"
     inkscape:pagecheckerboard="0"
     inkscape:deskcolor="#d1d1d1"
     inkscape:document-units="mm"
     showgrid="false"
     inkscape:zoom="0.14866305"
     inkscape:cx="2048.2561"
     inkscape:cy="1816.1877"
     inkscape:window-width="1280"
     inkscape:window-height="1001"
     inkscape:window-x="-8"
     inkscape:window-y="-8"
     inkscape:window-maximized="1"
     inkscape:current-layer="layer1" />
  <defs
     id="defs9" />
  <g
     inkscape:label="Layer 1"
     inkscape:groupmode="layer"
     id="layer1"
     transform="translate(366.59257,205.34494)">
    <g
       id="g4049"
       transform="matrix(0.88503498,0,0,0.88503498,79.07879,152.58795)">
      <path
         id="rect118"
         style="stroke:#000000;stroke-width:14.919;stroke-linecap:round;stroke-dasharray:none;stroke-opacity:1;paint-order:stroke markers fill"
         d="m 66.147649,-197.88544 c -27.40542,0 -49.4683,22.06289 -49.4683,49.4683 v 13.01781 c 0,27.40541 22.06288,49.468298 49.4683,49.468298 h 19.31045 c 23.466211,0 43.012881,-16.177008 48.147971,-38.032308 21.93885,22.69203 51.17724,52.700108 70.94089,72.951618 v 75.39902 L 143.7424,68.90344 V 47.467538 c 0,-36.23014 -29.16743,-65.39755 -65.397561,-65.39755 h -36.54558 c -36.2301351,0 -65.397553,29.16741 -65.397553,65.39755 v 9.816972 l -74.620769,-31.264242 -0.206705,-67.31992 c -0.02515,-8.18459 -6.629302,-14.5099 -14.807362,-14.18208 l -59.14626,2.37092 c -8.17807,0.32782 -14.74156,7.18087 -14.71642,15.36547 l 0.47388,154.188002 c 0.0251,8.18459 6.62929,14.5099 14.80736,14.18208 l 43.27643,-1.73478 c 13.15387,33.91948 24.49146,62.97031 28.562595,73.39449 h -1.666565 c -11.15511,0 -20.13521,8.98061 -20.13521,20.13572 v 16.36024 c 0,11.15511 8.9801,20.13572 20.13521,20.13572 h 30.203325 c 11.155108,0 20.135721,-8.98061 20.135721,-20.13572 v -16.36024 c 0,-11.15511 -8.980613,-20.13572 -20.135721,-20.13572 H -99.93627 l -28.29491,-73.40689 15.56287,-0.62373 c 8.17807,-0.32783 14.741559,-7.18088 14.716415,-15.36548 l -0.266134,-86.522882 c 21.117151,8.89709 49.575739,20.75161 74.619735,31.156242 v 82.27146 c 0,36.23015 29.1674179,65.39756 65.397553,65.39756 h 36.54558 c 17.88316,0 34.042361,-7.10964 45.825631,-18.66398 8.98734,9.27474 18.46297,19.03319 28.13213,28.96878 -2.23796,4.32971 -3.50831,9.24749 -3.50831,14.4756 v 35.23713 c 0,17.42985 14.03231,31.46216 31.46216,31.46216 h 57.88949 c 17.42985,0 31.46216,-14.03231 31.46216,-31.46216 v -35.23713 c 0,-17.42985 -14.03231,-31.46164 -31.46216,-31.46164 h -57.88949 c -12.0978,0 -22.55345,6.76303 -27.82156,16.72714 l -28.03033,-28.9388 c 11.9518,-11.83744 19.33784,-28.27594 19.33784,-46.50466 V 69.30962 c 19.79357,-14.49869 42.13528,-30.943202 60.80456,-44.709422 v 6.88951 c 0,25.796182 20.76738,46.563562 46.56356,46.563562 h 37.75429 c 25.79618,0 46.56356,-20.76738 46.56356,-46.563562 v -129.62258 c 0,-25.796188 -20.76738,-46.563568 -46.56356,-46.563568 h -37.75429 c -25.79618,0 -46.56356,20.76738 -46.56356,46.563568 v 46.94494 L 133.6934,-124.33592 c 0.80623,-3.55505 1.233,-7.25751 1.233,-11.06341 v -13.01781 c 0,-27.40541 -22.06288,-49.4683 -49.468301,-49.4683 z" />
      <path
         id="path1142"
         style="opacity:1;fill:#ffffff;stroke:#000000;stroke-width:6.719;stroke-linecap:round;stroke-dasharray:none;stroke-opacity:1;paint-order:stroke markers fill"
         d="m 75.03331,-192.3935 c -27.40542,0 -49.4683,22.06289 -49.4683,49.4683 v 13.01781 c 0,27.40541 22.06288,49.468292 49.4683,49.468292 h 19.31045 c 23.46622,0 43.01289,-16.177003 48.14798,-38.032302 21.93885,22.692029 51.17724,52.700102 70.94089,72.951612 v 75.39902 L 152.62807,74.395377 V 52.959472 c 0,-36.230141 -29.16743,-65.39755 -65.39757,-65.39755 H 50.68492 c -36.230135,0 -65.397553,29.167409 -65.397553,65.39755 v 9.816972 L -89.3334,31.512202 l -0.20671,-67.31992 c -0.0251,-8.18459 -6.6293,-14.5099 -14.80735,-14.18208 l -59.14626,2.37092 c -8.17807,0.32782 -14.74156,7.18087 -14.71642,15.36547 l 0.47388,154.188008 c 0.0251,8.18459 6.62929,14.5099 14.80736,14.18208 l 43.27643,-1.73478 c 13.15387,33.91948 24.49145,62.97031 28.56259,73.39449 h -1.66657 c -11.1551,0 -20.1352,8.98061 -20.1352,20.13572 v 16.36024 c 0,11.15511 8.9801,20.13572 20.1352,20.13572 h 30.20333 c 11.155104,0 20.135717,-8.98061 20.135717,-20.13572 v -16.36024 c 0,-11.15511 -8.980613,-20.13572 -20.135717,-20.13572 h -28.49749 l -28.2949,-73.40689 15.56287,-0.62373 c 8.17806,-0.32783 14.74155,-7.18088 14.71641,-15.36548 l -0.26614,-86.522888 c 21.11715,8.89709 49.575741,20.75161 74.619737,31.156242 v 82.271466 c 0,36.23015 29.167418,65.39756 65.397553,65.39756 H 87.2305 c 17.88317,0 34.04237,-7.10964 45.82564,-18.66398 8.98734,9.27474 18.46297,19.03319 28.13213,28.96878 -2.23796,4.32971 -3.50831,9.24749 -3.50831,14.4756 v 35.23713 c 0,17.42985 14.03231,31.46216 31.46216,31.46216 h 57.88949 c 17.42985,0 31.46216,-14.03231 31.46216,-31.46216 v -35.23713 c 0,-17.42985 -14.03231,-31.46164 -31.46216,-31.46164 h -57.88949 c -12.0978,0 -22.55345,6.76303 -27.82156,16.72714 l -28.03033,-28.9388 c 11.9518,-11.83744 19.33784,-28.27594 19.33784,-46.50466 V 74.801557 c 19.79357,-14.498693 42.13528,-30.943205 60.80456,-44.709425 v 6.88951 c 0,25.796182 20.76738,46.563565 46.56356,46.563565 h 37.75429 c 25.79618,0 46.56356,-20.767383 46.56356,-46.563565 V -92.640941 c 0,-25.796179 -20.76738,-46.563559 -46.56356,-46.563559 h -37.75429 c -25.79618,0 -46.56356,20.76738 -46.56356,46.563559 v 46.944943 l -70.85356,-73.147982 c 0.80623,-3.55505 1.233,-7.25751 1.233,-11.06341 v -13.01781 c 0,-27.40541 -22.06288,-49.4683 -49.46831,-49.4683 z" />
    </g>
    <g
       aria-label="PLAN TACTIKO"
       transform="matrix(0.84459741,0,0,0.76522096,77.621387,204.22602)"
       id="text1198"
       style="font-size:172.316px;line-height:1.25;font-family:Chiller;-inkscape-font-specification:'Chiller, Normal';stroke-width:4.308;stroke-dasharray:none">
      <path
         d="m -340.24508,383.71842 -0.33655,1.00966 -1.5145,0.84139 -1.43035,-1.68278 1.43035,-0.84138 z m 53.93289,-0.50484 -0.33655,3.44969 -0.50484,4.29107 -0.84138,3.28141 -1.09381,2.35588 -0.67311,2.44002 -1.34621,2.77658 -2.27175,1.5145 -1.17794,2.44002 -2.44002,2.44002 -2.44002,1.00966 -2.01933,1.34622 -8.66628,1.00967 -4.1228,-1.00967 h -2.52416 l -3.28141,-1.51449 -0.50483,-0.84139 v -2.27174 l 0.67311,-0.50484 h 2.18761 l 2.44002,0.84139 2.6083,0.67311 4.7959,0.33655 4.1228,-0.33655 2.77657,-0.67311 1.68278,-2.44002 1.0938,-2.52416 2.35588,-3.28141 0.58897,-2.44002 1.5145,-2.27175 0.67311,-3.78624 0.33655,-6.47867 -0.84139,-3.28141 v -3.44969 l -1.34621,-2.94485 -2.6083,-5.04832 -0.67311,-2.01933 -1.59864,-0.84138 -1.17794,-2.94486 -3.61796,-1.76691 -2.77658,-1.00966 -4.45935,-0.50484 -4.7959,-0.16827 -4.71177,0.16827 -1.17794,1.17795 0.84139,2.60829 -1.17794,3.78624 -1.17794,3.95452 -1.26208,4.45935 -1.00967,4.54349 -0.50483,2.52416 -0.16828,3.78624 -0.67311,3.44968 -0.42069,4.54349 -0.84139,3.44969 v 3.78624 l -1.00966,4.12279 -0.50483,3.11313 -0.50483,3.61797 -1.43036,3.95451 -0.50483,3.78624 -1.17795,4.45935 -0.6731,4.45935 -1.09381,4.71177 -1.34622,4.7959 -4.12279,8.24559 -0.16828,2.94486 -1.26208,2.60829 -1.00966,2.94486 0.16828,3.78624 -0.33656,2.52416 -1.17794,3.11313 0.67311,4.29107 1.51449,2.10347 0.50484,2.27174 -0.50484,0.84139 -1.51449,0.16828 h -0.84139 l -0.75725,-1.00967 -1.17794,-2.94485 -0.33655,-3.95452 0.50483,-5.04832 0.67311,-4.45935 0.33655,-4.62763 v -3.44968 l 1.26208,-0.84139 0.84139,-2.10346 0.16828,-4.1228 -0.67311,-4.12279 1.51449,-2.77658 1.59864,-7.23593 0.67311,-4.29107 0.84139,-3.61796 -0.84139,-3.44969 0.33655,-3.11313 1.00967,-5.72143 0.33655,-5.80556 0.92553,-5.04832 -0.16828,-4.62763 1.00966,-3.95452 1.34622,-5.88971 v -4.45934 l 0.92553,-6.39454 -0.92553,-3.95452 -0.50483,-4.1228 -0.50483,-2.60829 0.84139,-3.95452 1.93518,-1.85105 3.61797,-0.92553 3.28141,1.26208 h 2.35588 l 4.20693,-2.10346 4.1228,-0.67311 3.95451,0.50483 3.61797,-1.00967 4.12279,0.84139 4.62763,1.76691 3.44968,2.35589 3.11313,3.2814 2.6083,4.96418 1.17794,1.59864 0.33656,2.77658 1.43036,2.35588 0.84138,3.28141 0.50484,3.11313 -0.33656,2.77657 z"
         id="path1250"
         style="stroke:#000000;stroke-width:2.908;stroke-linejoin:miter;stroke-miterlimit:18.6;stroke-dasharray:none;stroke-dashoffset:0;stroke-opacity:1" />
      <path
         d="m -212.18602,455.06801 -0.16828,2.35588 -1.26208,1.93519 -0.67311,1.5145 -1.51449,1.26208 h -2.6083 l -2.27175,0.67311 -2.52416,0.84138 h -2.94485 l -3.44969,-0.33655 -3.95451,0.67311 h -2.6083 l -2.94486,0.84138 -2.35588,1.43036 -3.28141,1.00967 -3.11313,1.93518 -2.6083,1.68278 h -4.7959 l -2.94485,-0.50483 h -3.44969 l -2.77658,-0.16828 -2.35588,-0.50483 -2.6083,-0.92553 -2.94485,0.42069 -1.93519,-0.58897 -0.84139,-1.34621 0.16828,-1.93519 v -2.18761 l 0.16828,-1.93519 0.92552,-1.85105 -0.42069,-1.93519 0.42069,-1.68277 0.50484,-2.10347 v -2.6083 l 0.84138,-3.19727 0.16828,-3.28141 -0.16828,-2.77657 0.50483,-2.6083 0.33656,-2.94485 0.67311,-2.52416 0.16828,-3.11313 -0.16828,-1.76692 v -6.56281 l 0.16828,-2.86072 v -3.78624 l 0.42069,-2.77657 0.33655,-3.61797 0.16828,-2.27174 -0.16828,-2.35588 -0.33655,-2.44002 0.33655,-2.27175 v -2.94485 l 0.16828,-2.69244 0.33656,-2.6083 -0.33656,-1.59863 0.33656,-1.68278 0.33655,-2.27174 -0.16828,-1.68277 0.67311,-2.10347 -0.84138,-1.85105 -0.33656,-2.44002 v -2.77658 l -0.16828,-2.52416 -0.33655,-2.6083 v -2.27174 l 0.84139,-1.5145 -1.26208,-1.43036 -0.33656,-1.68277 1.0938,-1.51449 v -1.93519 l 0.67311,-2.10347 v -2.52416 l 0.16828,-2.27174 -0.16828,-1.5145 1.5145,-1.93519 1.76691,-1.5145 1.68277,-0.67311 2.10347,-0.25241 2.18761,-0.67311 2.10346,0.16828 1.93519,1.26208 1.85105,1.00966 2.27175,1.5145 1.51449,2.27174 0.67311,2.44002 0.33656,1.85105 -0.67311,2.27175 -0.33656,1.68277 -2.01932,1.76691 -1.26208,2.01933 -0.50484,3.28141 -0.84138,2.27174 -0.50484,2.27175 -0.50483,2.35588 -0.75725,2.44002 v 2.77658 l -0.84138,2.69243 -0.67311,4.88005 v 2.52416 l -0.84139,2.27174 -0.50483,1.76691 -0.92553,1.5145 -0.16827,2.27174 -0.50483,2.69244 -0.67311,5.72143 v 2.77658 l -0.84139,2.35588 -0.33656,3.11313 -0.75724,2.94485 v 2.77658 l -0.50484,2.01933 -0.33655,1.76691 v 2.6083 l -0.67311,2.1876 -0.16828,2.27175 -0.50483,2.6083 -0.84139,2.86071 0.16828,2.10347 -0.16828,3.44968 -0.58897,2.6083 -0.50483,1.85105 v 1.26208 l -0.33655,1.85105 -0.16828,2.27175 0.50483,1.00966 1.59864,0.33656 1.85105,-0.84139 2.94485,-0.33656 3.28141,-0.33655 h 1.85105 l 2.44002,1.00966 h 2.77658 l 1.85105,-0.67311 2.27174,-0.16827 3.11313,-1.09381 1.68278,-0.6731 2.60829,0.16827 3.28141,0.50483 3.11313,-0.50483 3.61797,-0.84138 2.77657,-1.34622 2.18761,-1.09381 0.50483,-1.51449 2.44002,-1.34622 1.93519,-0.92553 2.35588,0.50484 1.76692,1.26208 1.00966,1.85105 1.76691,1.76691 0.33656,1.85105 0.50483,2.27174 z m -12.45252,-27.76576 -0.50484,1.00966 -1.00966,-0.33655 -0.84139,-1.5145 1.17794,-1.43036 1.17795,0.84139 z m -50.31493,-24.48436 -0.16828,1.00967 -1.34622,0.75725 -0.84138,-1.26208 1.00966,-1.34622 z"
         id="path1252"
         style="stroke:#000000;stroke-width:2.908;stroke-linejoin:miter;stroke-miterlimit:18.6;stroke-dasharray:none;stroke-dashoffset:0;stroke-opacity:1" />
      <path
         d="m -204.87116,402.46422 0.27376,-0.6295 0.71652,-0.19947 0.49683,0.0988 -0.0811,0.49684 -0.27376,0.62949 -0.35827,0.0997 z m 6.65166,-49.11841 0.79763,-0.69629 1.406,-0.23332 0.36163,0.92687 0.70806,1.42324 0.78073,2.54912 1.29106,2.56513 1.71185,4.70067 1.07644,4.4033 0.18926,3.02994 0.90239,1.80386 1.11024,6.2909 1.3181,2.39951 0.82466,3.32731 1.40429,3.44259 1.27418,1.62133 2.92519,4.60003 0.38021,2.38396 2.4909,2.54729 3.45246,1.37064 3.89013,0.26078 3.99999,0.11164 3.00465,-0.59929 3.50992,-2.12317 3.14152,-0.91405 0.89228,-1.27593 2.50611,-1.21141 5.16604,-1.79379 1.07308,-0.81249 1.27082,-3.59446 0.39207,-2.40134 1.37558,-1.0943 0.47318,-2.89818 0.99706,-2.96496 0.31434,-5.06711 1.05114,-3.29618 1.57499,-3.36297 2.03297,-2.50244 2.18673,-1.8734 3.50993,-2.12318 2.97928,0.0796 2.78665,0.21228 0.71988,0.82713 1.5733,0.31293 0.92944,1.63826 0.71989,0.82714 -0.27039,1.6561 0.62525,1.40677 -0.5543,3.395 -1.17955,1.98823 -0.14535,1.93745 -0.6861,1.06045 -1.07477,0.2992 -0.25688,1.57329 -1.70849,0.51512 -0.90579,1.35872 -1.33165,1.87249 -1.51584,0.38246 -1.8251,2.80026 -1.05113,3.29619 -0.90917,0.33212 -0.0338,2.30161 -1.21675,3.26325 -0.3515,2.15292 0.96323,3.52585 0.52046,3.09582 -0.19604,3.29526 -0.19942,2.26868 -0.60498,0.56362 0.14194,1.22514 -0.10816,0.66244 -2.98437,2.56969 -0.16223,0.99365 -1.66455,1.29332 -2.29489,2.53583 -2.763,2.78471 -0.87538,2.21971 -0.44952,1.70596 -0.0507,1.35782 -1.51755,4.05835 -1.3249,3.92569 -2.24589,4.85392 -0.80441,2.83229 -0.87875,1.19312 -0.55093,4.4216 -0.3042,3.95771 -0.9396,3.66034 -1.8251,2.80027 -1.63414,2.15429 -1.67977,0.86281 -0.86185,2.13691 -1.31981,1.27638 -0.72666,1.30887 0.33459,1.09247 -0.69624,2.16985 0.80944,2.89681 -0.77737,2.66669 0.79086,1.43971 -0.84833,2.0541 -1.07646,-0.21411 -2.05154,1.04535 -1.0207,-0.032 -0.96156,1.17665 -2.70383,-0.19582 -2.0735,-1.43834 -1.43132,-3.27698 -0.74694,-0.66153 -0.90577,-2.83047 -1.07307,-3.3767 -0.18925,-3.02993 -0.94971,-3.60866 -1.48541,-2.94575 0.0642,-1.44062 -1.08152,-1.75401 -0.54414,-1.9036 -1.22179,-2.46586 0.5036,-2.03717 -0.99026,-3.36024 0.0507,-1.35782 -0.64046,-1.83727 -0.35486,-3.06287 -0.93281,-2.66485 0.16563,-4.15627 -0.27206,-3.04639 -0.33121,-4.25508 0.24335,-1.49049 -0.46301,-2.40042 -0.52385,-4.12241 -0.49513,-3.77472 0.14197,-2.96406 -0.49006,-2.23482 -1.99238,-1.93517 -2.51456,-1.35508 -3.25643,-0.47671 -3.06378,-0.60939 -2.95563,-1.27182 -0.34811,-1.00968 -0.52724,-0.9598 0.74355,-0.36507 0.63203,-0.72923 1.55471,-1.14417 1.76594,0.18025 0.79763,-0.69628 2.64807,0.0137 3.11448,-0.74844 1.33503,-0.84589 0.32447,-1.98731 -0.10477,-2.50016 -0.68439,-2.61546 -0.94633,-2.58205 -0.60497,-3.62557 -0.49006,-2.23483 -0.5492,-3.4435 -0.68608,-3.12874 -1.15756,-3.90649 -0.67257,-3.21155 0.0947,-4.76882 -0.74693,-0.66154 -0.68439,-2.61545 -0.78073,-2.54911 0.22983,-1.40769 -0.69285,-0.99274 z m 0.82132,-6.0777 q 0.1098,-0.14915 0.88212,-0.16651 l 0.46979,0.26442 0.0845,0.52976 -0.57795,0.39802 -0.80101,-0.33031 z m 56.3949,75.59381 0.30081,-0.79511 0.82637,-0.3486 0.88549,0.86008 -0.13519,0.82805 -0.97677,0.74615 -0.96493,0.15006 -0.0845,-0.52978 z m 17.31656,-39.5592 0.79933,-0.18299 0.77397,0.49592 -0.13519,0.82804 -0.55092,0.23241 -0.88381,-0.34678 -0.0845,-0.52977 z m 0.62875,-22.70182 0.27377,-0.6295 1.13223,0.39619 0.29403,1.34089 -0.85509,9.1e-4 -0.99365,-0.19763 z m -52.95318,52.56219 0.44782,1.96993 1.15587,3.39318 -0.14196,2.96406 0.61173,1.48956 0.29572,1.8542 0.72328,1.85374 -0.88215,4.35572 1.67974,3.32638 -0.86523,1.11032 0.50357,2.15201 0.10307,6.17606 0.87873,2.99608 -0.18591,2.18587 1.51245,2.78015 0.44613,1.45664 1.07475,3.89 3.94931,-2.71974 0.0203,-2.2188 1.55302,-1.65747 0.32447,-1.98732 0.50697,-1.01058 1.21675,-3.26325 0.81791,-2.91509 0.14872,-0.91086 1.01733,-0.99457 0.39206,-2.40134 1.10184,-4.654 0.36503,-2.23573 1.23532,-1.80615 -0.24165,-2.18541 1.32997,-2.38579 -1.08322,-2.2673 -3.60792,-2.51298 -3.81408,-2.29752 -3.08406,-2.57977 -1.6882,-1.70368 -3.20404,-1.32123 -2.31685,0.0521 -0.74355,0.36507 z m 8.08616,1.26635 1.03422,-0.0508 0.73341,0.74433 -0.27376,0.62951 -0.82806,-0.1647 -0.5509,0.23239 -0.25011,-0.5627 z"
         id="path1254"
         style="fill:#008080;stroke:#000000;stroke-width:2.908;stroke-linejoin:miter;stroke-miterlimit:18.6;stroke-dasharray:none;stroke-dashoffset:0;stroke-opacity:1" />
      <path
         d="m -74.198602,371.09762 -2.019328,1.26208 v -2.27175 l 1.851051,0.16828 z m 30.878892,-14.30358 -0.168278,2.44002 v 2.77658 l -1.009664,1.85105 0.336555,1.43036 -0.673109,2.35588 -1.93519,2.44002 -1.514496,2.27175 -0.757248,4.96418 v 3.11313 l -0.841386,4.29107 0.168277,2.27174 -0.841387,3.78624 -0.168277,3.44969 -1.598635,3.11313 -0.673109,3.95452 -0.336555,3.95452 -5.132459,10.85388 -1.766912,1.34622 -0.504832,2.6083 -1.514496,2.44002 -0.757248,3.95452 -0.841387,2.35588 v 3.28141 l -2.019328,5.38488 -1.430357,2.52416 -0.504832,4.03865 -0.336555,3.19727 -0.841386,3.11313 0.168277,2.6083 -0.504832,2.77658 0.336555,1.51449 -1.430358,1.76692 -1.514496,3.44968 h -1.346218 l -1.766913,-0.33655 -0.673109,-2.44003 -3.281408,-1.76691 -1.177941,-3.02899 -0.757248,-2.6083 -1.851051,-3.11313 v -2.10347 l -1.766912,-2.01932 1.598635,-3.11313 -1.766912,-3.11314 -0.504832,-4.62762 -2.524161,-5.55315 -0.925525,-4.79591 -0.841387,-3.78624 -1.177941,-6.05798 -0.673109,-2.01933 -0.925526,-2.94485 -1.346218,-3.61797 -2.440022,-7.23592 -2.776576,-4.1228 -1.851048,3.44969 -0.67311,1.34622 v 9.67594 l -0.67311,4.62763 0.50483,4.29107 -0.92552,5.04832 -0.84139,5.30074 -1.34622,2.6083 -0.67311,4.29107 -0.75725,5.13246 -0.33655,9.84422 -1.17794,2.44002 0.67311,2.18761 -1.85105,2.44002 -3.11314,1.34622 -3.95451,0.16828 -3.11313,-1.85105 -0.84139,-3.11313 -1.26208,-3.78624 -0.84139,-3.44969 v -2.77658 l 2.27175,-3.44968 1.51449,-1.5145 1.34622,-1.76691 1.59864,-3.61796 0.16827,-4.62763 1.68278,-3.95452 0.58897,-3.61796 1.51449,-2.77657 -0.67311,-8.07732 -0.84138,-2.6083 -0.58897,-4.62762 0.92552,-4.62763 1.17794,-3.11313 1.00967,-3.95452 2.6083,-2.44002 1.17794,-10.18078 2.44002,-3.11313 0.67311,-3.44968 2.44002,-3.029 0.84139,-0.92552 1.177938,-0.84139 0.420693,-2.10347 1.009665,-0.6731 h 1.514496 l 1.093802,1.26208 0.504832,2.52416 1.009664,4.12279 0.841387,4.88004 1.26208,11.35872 0.673109,5.13246 1.177942,3.11313 0.504832,3.28141 0.336554,3.11313 1.26208,4.62763 0.504832,5.2166 2.187606,3.44968 1.26208,5.13246 0.336555,4.88004 1.177941,4.1228 1.26208,4.7959 0.841387,3.11313 0.673109,1.68278 h 1.346219 l 1.093802,-1.68278 2.019329,-1.76691 0.673109,-3.61796 1.26208,-0.84139 -0.336555,-1.68277 1.177942,-4.1228 -0.504832,-2.77657 0.504832,-3.44969 1.514496,-1.59863 1.598634,-2.52416 1.346219,-3.11313 1.766912,-3.11313 1.682773,-1.93519 v -3.19727 l 1.598635,-3.11313 0.841387,-2.10347 1.177941,-3.78624 0.67311,-3.11313 -0.336555,-4.96418 -1.177941,-3.78624 -1.346219,-3.95452 -1.430358,-2.94485 v -3.44969 l -0.336554,-4.45935 1.766912,-1.93519 v -2.44002 l 1.346219,-1.68277 0.841386,-5.38488 1.26208,-3.19727 1.346219,0.67311 2.944853,-1.0938 1.682774,-2.01933 3.113131,-1.26208 2.103466,-0.67311 1.851051,1.43036 1.093803,2.52416 1.009664,-0.16828 z m -69.4144,110.3058 -1.59864,0.67311 -1.34622,-0.67311 0.50484,-1.76691 1.85105,0.42069 z"
         id="path1256"
         style="stroke:#000000;stroke-width:2.908;stroke-linejoin:miter;stroke-miterlimit:18.6;stroke-dasharray:none;stroke-dashoffset:0;stroke-opacity:1" />
      <path
         d="m 90.208341,365.6286 -1.598635,0.67311 -1.177941,-0.33655 -3.449686,-0.50483 -4.795904,-0.58898 h -5.553152 l -6.731093,0.4207 -7.235926,1.00966 -6.478677,0.16828 -5.72143,1.17794 -4.627627,0.84139 -5.04832,1.59863 -3.78624,1.00967 -3.617963,0.84138 -1.177941,1.43036 -2.271744,1.34622 -2.944854,1.59863 -3.449685,1.00967 -4.627627,0.67311 -4.627627,0.16827 -4.1227945,-1.34621 -2.4400214,-1.59864 -2.4400214,-1.68277 -2.18760538,-1.93519 -0.33655468,-2.35588 0.33655468,-2.77658 1.51449608,-2.10347 1.4303573,-1.34622 2.1876054,-0.67311 3.4496855,-1.76691 3.2814084,-0.84138 5.216597,-0.50484 h 5.637291 l 7.235926,0.50484 h 7.235925 l 7.740758,-0.50484 6.394538,-0.16827 2.776577,-0.50484 3.617962,0.33656 3.954518,-0.67311 4.291072,0.84139 3.954517,-0.16828 3.617963,0.33655 6.899371,0.84139 h 3.281408 l 5.553152,2.77658 0.841387,1.51449 z m -65.459885,-18.25809 -1.093802,1.34622 -1.346219,-1.34622 0.841387,-1.76691 1.598634,0.50483 z m 21.202945,32.22511 -0.925525,1.5145 -0.67311,3.44968 v 3.11313 l -0.504832,3.95452 v 3.44969 l -0.336554,2.77657 -0.67311,2.35589 0.67311,1.93519 -1.177942,2.1876 -0.252416,2.94485 v 2.6083 l -0.673109,3.28141 -0.336555,3.78624 -0.336555,2.94485 0.336555,3.44969 -0.673109,3.95452 -0.168278,3.78624 v 3.11313 l 0.168278,3.95452 0.336554,4.29107 -0.336554,4.12279 v 4.45935 l -0.504832,3.87038 0.336554,3.61796 v 3.95452 l 0.168278,3.61796 -0.168278,3.61797 -1.177941,1.17794 -0.336555,-0.84139 -0.420693,-1.59863 0.420693,-2.69244 0.168278,-3.28141 -0.757248,-1.93519 0.168277,-3.28141 -0.504832,-1.85105 -0.504832,-2.6083 v -8.58214 l -0.673109,-2.77658 v -3.11313 L 36.275454,435.043 v -3.95451 l -0.336555,-3.28141 v -3.44969 l 0.336555,-3.44968 v -4.62763 l -0.336555,-4.71176 v -7.40421 l -0.168277,-2.69243 0.673109,-2.6083 v -3.28141 l -0.168277,-4.1228 -1.430357,-3.95451 -0.841387,-3.61797 -1.346219,-2.77657 -0.336554,-2.77658 v -2.35588 l 1.177941,-1.93519 2.103467,-2.10347 2.692437,-0.33655 2.103467,0.75725 2.440021,2.01932 1.851051,2.27175 z"
         id="path1258"
         style="stroke:#000000;stroke-width:2.908;stroke-linejoin:miter;stroke-miterlimit:18.6;stroke-dasharray:none;stroke-dashoffset:0;stroke-opacity:1" />
      <path
         d="m 88.67594,397.40711 0.292242,-0.6193 0.722037,-0.17354 0.49364,0.11667 -0.09577,0.49364 -0.29223,0.6193 -0.361024,0.0868 z m 8.100945,-48.85255 0.817794,-0.66718 1.41215,-0.18253 0.334033,0.93941 0.665578,1.44799 0.70491,2.57588 1.21452,2.61029 1.57189,4.75985 0.94563,4.43974 0.0995,3.03514 0.84856,1.83542 0.92357,6.32755 1.24644,2.44573 0.7258,3.35525 1.30171,3.49135 1.22554,1.66638 2.78758,4.70297 0.30949,2.3964 2.41423,2.63568 3.41007,1.49431 3.88036,0.40081 3.99455,0.25571 3.02076,-0.49071 3.57086,-1.99557 3.16689,-0.80036 0.92953,-1.2431 2.54062,-1.12046 5.21633,-1.60669 1.09655,-0.77339 1.37645,-3.54675 0.46289,-2.38593 1.40721,-1.04416 0.55866,-2.87958 1.08422,-2.92746 0.46405,-5.05308 1.14806,-3.25655 1.67363,-3.30442 2.1059,-2.42786 2.24098,-1.7936 3.57085,-1.99558 2.97535,0.18692 2.77887,0.31257 0.69505,0.85264 1.5632,0.36945 0.88048,1.67088 0.69504,0.85264 -0.31923,1.64547 0.58332,1.42855 -0.65443,3.37322 -1.23773,1.94466 -0.20257,1.93118 -0.7171,1.03517 -1.08306,0.26031 -0.30327,1.56319 -1.72281,0.45329 -0.9455,1.32537 -1.38632,1.8235 -1.52634,0.32763 -1.90696,2.73301 -1.14807,3.25656 -0.9185,0.29919 -0.10187,2.29916 -1.31261,3.21767 -0.415,2.13911 0.85842,3.55867 0.42863,3.11292 -0.2934,3.28644 -0.26642,2.26029 -0.62133,0.54152 0.10563,1.22961 -0.12769,0.65819 -3.05879,2.46078 -0.19153,0.98728 -1.70193,1.23264 -2.36867,2.45179 -2.84389,2.68367 -0.94056,2.18699 -0.49974,1.68886 -0.0908,1.35526 -1.63677,4.00151 -1.44031,3.87585 -2.38827,4.77041 -0.88775,2.8018 -0.91357,1.16082 -0.68142,4.39939 -0.42109,3.94464 -1.04737,3.62454 -1.90695,2.733 -1.69699,2.09427 -1.70439,0.80182 -0.9246,2.10472 -1.35686,1.22815 -0.765,1.28198 0.30211,1.10395 -0.76006,2.1436 0.72334,2.92443 -0.85583,2.63726 0.74786,1.46744 -0.90864,2.02244 -1.06955,-0.25278 -2.08137,0.97087 -1.01921,-0.0688 -0.99585,1.14138 -2.6966,-0.29314 -2.02985,-1.51229 -1.33364,-3.32681 -0.72696,-0.68808 -0.82157,-2.8616 -0.97263,-3.41357 -0.0995,-3.03513 -0.84246,-3.64096 -1.39749,-2.99771 0.1068,-1.43753 -1.02907,-1.79205 -0.48754,-1.92218 -1.1482,-2.50857 0.56358,-2.01795 -0.89035,-3.39413 0.0908,-1.35526 -0.58577,-1.85937 -0.26409,-3.07402 -0.85349,-2.69705 0.28848,-4.14808 -0.18182,-3.05458 -0.20516,-4.26474 0.28731,-1.48093 -0.39178,-2.41583 -0.40164,-4.13909 -0.3832,-3.79054 0.22955,-2.95736 -0.42369,-2.25129 -1.93409,-2.00593 -2.47313,-1.44496 -3.240594,-0.5938 -3.044123,-0.71945 -2.916431,-1.37764 -0.318071,-1.02169 -0.498566,-0.97828 0.753949,-0.33809 0.653265,-0.70607 1.587726,-1.08754 1.759668,0.24379 0.817804,-0.66717 2.646252,0.10915 3.134961,-0.63582 1.35933,-0.79734 0.38307,-1.97456 -0.0307,-2.5026 -0.60666,-2.63872 -0.86946,-2.61478 -0.49741,-3.64544 -0.4237,-2.25129 -0.44705,-3.46145 -0.59319,-3.1518 -1.041393,-3.94611 -0.577214,-3.23407 0.235656,-4.76288 -0.726959,-0.68809 -0.606679,-2.63872 -0.704907,-2.57588 0.271347,-1.39866 -0.663125,-1.01718 z m 1.000642,-6.04487 q 0.11416,-0.14511 0.886575,-0.13464 l 0.461728,0.28121 0.06877,0.53253 -0.58941,0.37698 -0.790806,-0.359 z m 54.128933,77.58556 0.32417,-0.78385 0.83623,-0.31863 0.85959,0.89152 -0.15962,0.82274 -0.99831,0.71056 -0.96886,0.11521 -0.0688,-0.53254 z m 18.47741,-38.91415 0.80431,-0.1541 0.75889,0.52355 -0.15961,0.82273 -0.55749,0.21243 -0.87309,-0.37844 -0.0688,-0.53253 z m 1.29989,-22.66707 0.29224,-0.6193 1.1199,0.43677 0.25422,1.35078 -0.85466,-0.0299 -0.98728,-0.23334 z m -54.47963,50.62614 0.38931,1.98502 1.05489,3.43302 -0.22956,2.95736 0.56735,1.51082 0.24072,1.86386 0.66806,1.87881 -1.01051,4.32161 1.58045,3.38514 -0.89761,1.07854 0.43966,2.16902 -0.0797,6.17648 0.78964,3.02615 -0.25045,2.178 1.42941,2.83317 0.40281,1.47193 0.95912,3.92666 4.02765,-2.57599 0.0859,-2.21689 1.60122,-1.60062 0.38307,-1.97457 0.5366,-0.99178 1.31262,-3.21766 0.9037,-2.88407 0.17558,-0.90502 1.0462,-0.95738 0.46289,-2.38593 1.23889,-4.61182 0.43097,-2.22139 1.28809,-1.76067 -0.17688,-2.19295 1.39981,-2.3366 -1.01557,-2.30513 -3.53166,-2.64164 -3.74411,-2.43372 -3.00609,-2.68952 -1.63692,-1.7636 -3.16325,-1.43598 -2.31715,-0.0314 -0.75396,0.33808 z m 8.04438,1.55705 1.03517,-0.0135 0.71101,0.77036 -0.29225,0.6193 -0.82272,-0.19445 -0.5575,0.21242 -0.23332,-0.57141 z"
         id="path1260"
         style="fill:#008080;stroke:#000000;stroke-width:2.908;stroke-linejoin:miter;stroke-miterlimit:18.6;stroke-dasharray:none;stroke-dashoffset:0;stroke-opacity:1" />
      <path
         d="m 243.76142,429.91055 -1.43035,3.95451 -0.16828,2.52416 -2.94485,6.56282 -2.35589,4.71177 -1.43035,2.01932 -2.18761,3.28141 -2.77658,2.6083 -2.27174,2.94485 -3.95452,2.35589 -7.4042,1.59863 -3.28141,0.33656 -3.61796,-0.67311 -7.90904,-0.92553 -2.44002,-1.34622 -3.61796,-1.59863 -5.80557,-3.78624 -5.8897,-3.95452 -4.45935,-4.7959 -3.28141,-1.93519 -1.93519,-3.19727 -3.61796,-3.28141 -2.35589,-5.04832 -2.44002,-4.79591 -1.00966,-5.21659 v -6.81524 l -0.16828,-8.16145 1.00966,-6.14212 1.68278,-5.72143 2.6083,-5.38487 0.16827,-5.30074 1.59864,-5.30074 1.85105,-2.44002 1.00966,-1.76691 2.77658,-1.68277 3.95452,-2.44002 3.61796,-1.00967 5.2166,-0.84138 6.39454,-2.6083 5.13245,-1.76692 2.77658,-2.01932 5.13246,0.33655 5.55315,0.50483 3.44969,2.6083 2.52416,0.50483 3.78624,3.78624 3.61796,6.39454 0.25242,2.18761 -2.6083,0.42069 -1.00967,3.44969 -4.20693,1.51449 -3.44969,-2.27174 -4.96418,-0.33656 -4.12279,-2.1876 -4.62763,-0.58897 -4.37521,1.43036 -5.63729,1.34621 -4.71177,1.93519 -2.86071,2.35589 -2.27174,3.2814 -2.27175,3.95452 -2.1876,6.39454 -1.59864,7.4042 -0.33655,3.78624 -0.16828,4.88005 0.84139,5.80557 0.42069,5.8897 2.1876,5.13246 2.27175,3.78624 7.4042,8.66628 4.45935,2.94486 2.94485,1.51449 8.41387,0.84139 7.4042,-2.01933 6.22627,-2.10346 3.95451,-3.95452 2.77658,-4.29107 4.45935,-5.38488 2.6083,-1.00966 2.94485,-0.67311 2.18761,-3.61797 2.10346,-1.34621 2.44002,0.50483 z"
         id="path1262"
         style="stroke:#000000;stroke-width:2.908;stroke-linejoin:miter;stroke-miterlimit:18.6;stroke-dasharray:none;stroke-dashoffset:0;stroke-opacity:1" />
      <path
         d="m 334.71533,365.6286 -1.59864,0.67311 -1.17794,-0.33655 -3.44968,-0.50483 -4.79591,-0.58898 h -5.55315 l -6.73109,0.4207 -7.23593,1.00966 -6.47867,0.16828 -5.72143,1.17794 -4.62763,0.84139 -5.04832,1.59863 -3.78624,1.00967 -3.61796,0.84138 -1.17795,1.43036 -2.27174,1.34622 -2.94485,1.59863 -3.44969,1.00967 -4.62763,0.67311 -4.62762,0.16827 -4.1228,-1.34621 -2.44002,-1.59864 -2.44002,-1.68277 -2.18761,-1.93519 -0.33655,-2.35588 0.33655,-2.77658 1.5145,-2.10347 1.43036,-1.34622 2.1876,-0.67311 3.44969,-1.76691 3.28141,-0.84138 5.21659,-0.50484 h 5.6373 l 7.23592,0.50484 h 7.23593 l 7.74075,-0.50484 6.39454,-0.16827 2.77658,-0.50484 3.61796,0.33656 3.95452,-0.67311 4.29107,0.84139 3.95452,-0.16828 3.61796,0.33655 6.89937,0.84139 h 3.28141 l 5.55315,2.77658 0.84139,1.51449 z m -65.45989,-18.25809 -1.0938,1.34622 -1.34622,-1.34622 0.84139,-1.76691 1.59863,0.50483 z m 21.20295,32.22511 -0.92553,1.5145 -0.67311,3.44968 v 3.11313 l -0.50483,3.95452 v 3.44969 l -0.33655,2.77657 -0.67311,2.35589 0.67311,1.93519 -1.17794,2.1876 -0.25242,2.94485 v 2.6083 l -0.67311,3.28141 -0.33655,3.78624 -0.33656,2.94485 0.33656,3.44969 -0.67311,3.95452 -0.16828,3.78624 v 3.11313 l 0.16828,3.95452 0.33655,4.29107 -0.33655,4.12279 v 4.45935 l -0.50483,3.87038 0.33655,3.61796 v 3.95452 l 0.16828,3.61796 -0.16828,3.61797 -1.17794,1.17794 -0.33656,-0.84139 -0.42069,-1.59863 0.42069,-2.69244 0.16828,-3.28141 -0.75725,-1.93519 0.16828,-3.28141 -0.50483,-1.85105 -0.50483,-2.6083 v -8.58214 l -0.67311,-2.77658 v -3.11313 l -0.33656,-3.28141 v -3.95451 l -0.33655,-3.28141 v -3.44969 l 0.33655,-3.44968 v -4.62763 l -0.33655,-4.71176 v -7.40421 l -0.16828,-2.69243 0.67311,-2.6083 v -3.28141 l -0.16828,-4.1228 -1.43035,-3.95451 -0.84139,-3.61797 -1.34622,-2.77657 -0.33655,-2.77658 v -2.35588 l 1.17794,-1.93519 2.10346,-2.10347 2.69244,-0.33655 2.10347,0.75725 2.44002,2.01932 1.85105,2.27175 z"
         id="path1264"
         style="stroke:#000000;stroke-width:2.908;stroke-linejoin:miter;stroke-miterlimit:18.6;stroke-dasharray:none;stroke-dashoffset:0;stroke-opacity:1" />
      <path
         d="m 375.21167,454.17969 -1.48469,1.22328 -1.57716,0.88941 -5.13053,0.15517 -4.69329,0.8153 -4.08993,1.38625 -2.91869,1.09832 -2.49816,1.08559 -2.06301,1.66163 -0.79095,2.04401 0.21625,1.92938 0.40533,2.76535 -0.31137,1.01947 -0.82437,0.69829 -0.75697,0.0229 -0.85778,-0.64742 -0.88073,-1.5726 -1.68633,-0.11735 -2.25209,0.82565 -1.14827,1.21311 -1.56463,1.39405 -2.41196,1.16716 -3.00697,0.93265 -2.4391,0.0738 -2.29177,-0.77239 -2.39468,-1.5268 -0.80708,-1.99568 -1.88586,-1.37386 -1.38747,-1.64144 -0.34211,-3.60897 1.01613,-3.14503 2.12624,-2.50525 2.22495,-1.91903 3.20709,-3.04296 3.91337,-1.71759 3.6166,-0.10938 1.92611,-0.39494 1.64455,-1.5648 1.00512,-0.19874 0.72146,-1.45272 -0.85092,-3.76192 -0.22669,-2.34991 -0.75011,-3.09161 0.0659,-4.12634 -0.23295,-2.60224 0.43573,-2.79079 -0.58607,-3.26491 -0.24548,-3.10688 -0.0585,-2.35499 -0.80649,-5.36251 -0.38003,-15.3075 -1.04687,-1.48339 1.62576,-2.32178 -0.99976,-6.36669 -0.21716,-8.74715 -0.74176,-2.75518 0.7638,-3.13739 -2.26671,0.23688 -2.51068,0.58097 -2.10269,0.0636 -6.86546,1.47019 -1.93446,0.0585 -1.66126,0.89194 -3.43586,0.60894 -2.77553,0.084 -2.71649,-0.92789 -1.45697,-1.05015 -0.887,-1.82492 0.44409,-2.45436 1.13991,-1.54955 2.41822,-0.91484 2.96045,0.58383 2.63238,0.93043 2.01857,-0.0611 3.46093,0.40035 4.62588,-0.13991 4.71418,0.0258 3.6166,-0.10938 -0.0501,-2.01858 0.629,-1.78659 -0.19745,-1.17242 0.13272,-1.4349 -1.07192,-2.49269 -0.0731,-2.94376 0.9696,-1.62855 -0.74385,-2.8393 1.80651,-1.82221 2.75883,-0.7568 2.43075,-0.41019 2.36335,0.2652 0.65766,2.75773 0.3949,2.34482 0.55266,1.9192 -0.10766,2.44419 0.22669,2.34992 -1.37345,2.31413 -0.12645,1.68723 0.78828,1.23871 1.68633,0.11734 3.28017,-0.0992 3.12866,0.57873 4.45768,-0.13481 2.61567,0.25756 2.52322,-0.0763 0.76949,0.48176 0.0209,0.84106 -1.91985,0.64726 -3.96347,-0.30098 -2.93331,0.50956 -3.44838,0.1043 -3.60409,0.61403 -2.51068,0.58095 -2.06926,1.40931 0.0689,2.77553 -0.0784,3.6217 -0.58307,3.63695 0.4095,2.93357 -0.61856,2.20714 1.07819,2.74501 -0.74293,3.97847 0.0731,2.94374 -0.0471,4.88331 -0.86671,2.38298 0.54849,1.75098 0.094,3.78482 -0.4232,3.29544 0.59443,3.60134 -0.22158,4.63607 0.28607,11.52268 -0.41487,3.63186 0.43458,3.94286 0.60695,4.10598 2.96254,0.66794 2.6115,0.0894 2.96046,0.58382 3.31775,1.41472 2.52739,0.0919 4.39655,0.79291 3.14955,1.4198 1.842,-0.39238 2.27924,0.26774 1.026,0.64233 z m 3.44956,-6.83796 -1.15662,0.87669 -1.30545,-1.72809 1.06415,-1.21057 1.3666,0.80036 z"
         id="path1266"
         style="stroke:#000000;stroke-width:2.908;stroke-linejoin:miter;stroke-miterlimit:18.6;stroke-dasharray:none;stroke-dashoffset:0;stroke-opacity:1" />
      <path
         d="m 456.5481,452.79626 -0.16827,0.84139 h -1.00967 l -0.67311,-0.16828 -2.77657,-2.1876 -3.28141,-2.27175 -1.5145,-1.76691 -1.76691,-0.67311 -5.13246,-4.45935 -2.94485,-3.44968 -5.55315,-4.79591 -1.5145,-2.44002 -2.27174,-1.68277 -1.68278,-3.11313 -6.05798,-4.1228 -6.7311,-4.54348 -3.61796,-2.01933 -2.52416,-2.27175 -2.27174,-0.16827 -0.84139,-1.17795 h -2.44002 l -1.34622,0.84139 -0.16828,1.34622 -0.92552,4.88004 -0.50483,5.46902 -0.84139,8.07731 -0.84139,5.38487 v 4.1228 l -0.67311,2.6083 v 5.30073 l -0.16827,4.1228 v 4.54349 l 0.50483,3.78624 0.16827,3.2814 -1.0938,2.35589 -1.17794,0.16827 -0.84139,-0.84138 -1.00966,-1.34622 -0.75725,-1.26208 -0.67311,-3.78624 -1.00966,-2.35588 -0.84139,-4.1228 0.84139,-2.44002 -0.33656,-5.55315 1.17795,-2.86072 -0.84139,-3.87038 0.33655,-3.61796 -0.84138,-5.13246 -1.09381,-4.7959 v -4.1228 l -0.84138,-2.27174 0.16827,-1.76691 -1.34621,-2.35589 -0.16828,-2.60829 0.67311,-5.13246 -0.50483,-4.54349 -0.84139,-4.29107 0.50483,-3.28141 -0.84139,-2.35588 0.50484,-4.03866 0.50483,-2.69244 -1.43036,-5.72143 -0.16828,-3.28141 -1.00966,-1.34621 v -2.10347 l 0.84139,-3.11313 1.26208,-1.5145 3.11313,-2.27174 3.78624,-0.67311 3.95451,1.17794 3.44969,1.26208 2.69244,3.28141 1.26208,2.35588 v 3.95452 l -0.33656,3.87038 -1.26208,2.86071 -1.00966,3.61796 -0.67311,3.11314 0.50483,1.59863 1.5145,0.84139 1.93519,-0.33656 2.44002,-1.43036 3.11313,-2.35588 5.46901,-4.71176 2.6083,-1.68278 5.97385,-4.96418 4.37521,-3.28141 5.46901,-3.95451 5.2166,-2.94486 2.52416,-2.27174 2.77657,-2.27175 1.93519,-0.50483 1.5145,-1.85105 2.94485,-1.76691 2.6083,-0.84139 1.00967,0.16828 0.84138,0.50483 -0.50483,0.92553 -0.67311,1.00966 -2.77657,1.5145 -2.6083,2.44002 -2.18761,0.67311 -2.44002,2.10347 -2.94485,1.68277 -2.6083,2.27174 -3.19727,2.6083 -2.94485,3.02899 -3.11314,1.76692 -1.17794,1.68277 -2.44002,1.59863 -9.17111,9.08698 -3.95452,2.94485 -2.52416,2.77658 -1.0938,1.5145 -1.34622,0.16827 0.50483,2.44002 4.45935,4.45935 3.11313,3.28141 3.78624,3.44969 3.78624,2.94485 3.11313,2.6083 3.28141,3.61796 3.11313,4.62763 3.44969,3.95452 1.34621,1.93519 1.00967,2.35588 1.59863,1.59863 2.94486,3.11313 3.11313,2.52416 1.17794,2.10347 1.51449,1.00967 3.11314,2.60829 2.44002,1.85105 z m -1.17794,17.24843 -1.51449,1.00967 -1.26208,-0.84139 v -1.76691 l 0.84138,-0.67311 1.59864,0.84138 z m -58.39224,0.84139 -0.50483,0.84138 -1.26208,-0.84138 1.26208,-1.17794 z"
         id="path1268"
         style="stroke:#000000;stroke-width:2.908;stroke-linejoin:miter;stroke-miterlimit:18.6;stroke-dasharray:none;stroke-dashoffset:0;stroke-opacity:1" />
      <path
         d="m 498.87812,455.75282 1.49378,-1.29182 0.52523,1.2519 -0.47745,1.69249 -1.51971,-0.30657 z m -38.10705,-51.00023 1.13355,-7.9327 2.98157,-8.13755 2.11081,-4.75426 2.05672,-2.90183 2.72015,-3.50402 3.14351,-3.34408 3.83563,-2.17963 5.60909,-1.79393 6.042,-1.04512 5.81691,0.64236 5.23215,0.9064 4.159,2.18988 7.81459,4.47388 4.52826,4.20224 2.31098,2.39473 3.00308,3.55918 1.92584,4.59029 1.33696,4.60194 0.75219,4.86595 -0.6143,3.63068 0.91634,4.61026 1.06547,3.42918 -1.11086,4.14541 0.0341,2.10314 -1.1559,1.36928 0.0532,3.28089 -1.0595,2.12474 -1.81525,2.22385 -1.18953,4.48358 -2.28998,4.08457 -2.56146,2.91182 -1.79751,3.31747 -2.26592,0.3814 -2.57375,2.15469 -1.8371,0.87783 -2.42052,1.22599 -2.40823,1.9831 -2.67562,1.06273 -2.56556,2.65944 -2.39185,2.99261 -0.8276,0.85788 -2.08674,1.05108 -3.29181,-0.60814 -3.06127,-1.95914 -2.65566,-2.89282 -1.08187,-4.43868 0.45425,-3.1226 3.22763,-3.34575 4.25899,-2.0197 5.79917,-0.45125 3.70236,-5.20648 2.355,-5.26399 2.71469,-3.84052 2.33314,-6.60998 0.56788,-6.49095 1.25044,-5.91537 -2.4538,-6.01045 -0.85132,-5.78967 -3.17134,-3.55584 -3.14045,-6.83839 -2.27957,-0.45986 -1.19823,-1.23859 -2.78705,-0.61812 -3.79382,-0.42991 -4.43953,1.2659 -4.3513,1.51661 -2.65651,2.24048 -0.07,6.06033 -1.91576,1.216 0.24743,4.87594 -1.12587,3.22004 -0.44878,3.45911 -1.04585,2.966 0.72078,2.93108 0.49299,4.45032 1.73301,3.07937 2.29732,1.55347 1.73848,3.41588 3.00854,3.89566 -0.4515,3.29086 -0.9631,2.88022 -1.9144,1.30013 -2.77612,0.0549 -3.65424,-2.19987 -3.47917,-1.78256 -1.73575,-3.24762 -2.30551,-2.05822 -0.72898,-3.43583 -1.40197,-3.42252 -1.13868,-2.75452 -1.89444,-2.65542 -0.57847,-4.53278 z m 65.45062,24.7091 1.32961,-1.03611 1.33508,-0.69961 0.19556,1.67917 -0.81258,1.78326 -1.51425,0.0299 z"
         id="path1270"
         style="stroke:#000000;stroke-width:2.908;stroke-linejoin:miter;stroke-miterlimit:18.6;stroke-dasharray:none;stroke-dashoffset:0;stroke-opacity:1" />
    </g>
  </g>
</svg>
